<svg xmlns="http://www.w3.org/2000/svg" viewBox="0 0 100 100">
  <defs>
    <linearGradient id="grad" x1="0%" y1="0%" x2="100%" y2="100%">
      <stop offset="0%" style="stop-color:#25D366;stop-opacity:1" />
      <stop offset="100%" style="stop-color:#128C7E;stop-opacity:1" />
    </linearGradient>
  </defs>
  <circle cx="50" cy="50" r="45" fill="url(#grad)"/>
  <path d="M50 20c-16.5 0-30 13.5-30 30 0 5.3 1.4 10.3 3.8 14.6L20 80l15.8-4.1c4.2 2.3 9 3.6 14.2 3.6 16.5 0 30-13.5 30-30s-13.5-30-30-30zm0 55c-4.6 0-9-1.2-12.8-3.5l-.9-.5-9.4 2.5 2.5-9.1-.6-1c-2.5-4-3.8-8.5-3.8-13.4 0-13.8 11.2-25 25-25s25 11.2 25 25-11.2 25-25 25z" fill="white"/>
  <path d="M65.5 57.5c-1-.5-5.8-2.9-6.7-3.2-.9-.3-1.6-.5-2.2.5-.6 1-2.5 3.2-3 3.8-.6.6-1.1.7-2.1.2-1-.5-4.2-1.5-8-4.9-3-2.6-5-5.9-5.5-6.9-.6-1-.1-1.5.4-2 .5-.5 1-1.2 1.5-1.8.5-.6.7-1 1-1.7.3-.6.2-1.2-.1-1.7-.3-.5-2.2-5.4-3-7.4-.8-2-1.6-1.7-2.2-1.7-.6 0-1.2-.1-1.8-.1s-1.7.2-2.6 1.2c-.9 1-3.4 3.3-3.4 8s3.5 9.3 4 10c.5.6 6.8 10.4 16.5 14.6 2.3 1 4.1 1.6 5.5 2 2.3.7 4.4.6 6.1.4 1.9-.3 5.8-2.4 6.6-4.7.8-2.3.8-4.3.6-4.7-.2-.4-.9-.7-1.8-1.1z" fill="white"/>
</svg>
